<svg width="60" height="60" viewBox="0 0 60 60" fill="none" xmlns="http://www.w3.org/2000/svg">
<circle cx="30" cy="30" r="30" fill="#FCF0F3"/>
<path d="M41.84 34.88C38.25 36.59 33.95 35.06 32.24 31.47C30.53 27.88 32.06 23.58 35.65 21.87C40.59 19.52 49.55 23.24 49.55 23.24C49.55 23.24 46.53 32.65 41.84 34.88Z" stroke="#2E5A53" stroke-width="1.3" stroke-miterlimit="10" stroke-linecap="round" stroke-linejoin="round"/>
<path d="M16.02 28.23C18.83 31.04 23.4 31.04 26.21 28.23C29.02 25.42 29.02 20.85 26.21 18.04C22.34 14.16 12.66 14.67 12.66 14.67C12.66 14.67 12.34 24.55 16.02 28.23Z" stroke="#2E5A53" stroke-width="1.3" stroke-miterlimit="10" stroke-linecap="round" stroke-linejoin="round"/>
<path d="M19.95 21.7C23.64 25.39 30.06 32.7 29.17 45.88" stroke="#2E5A53" stroke-width="1.3" stroke-miterlimit="10" stroke-linecap="round" stroke-linejoin="round"/>
<path d="M40.99 26.28C36.69 28.4 28.45 32.7 29.34 45.89" stroke="#2E5A53" stroke-width="1.3" stroke-miterlimit="10" stroke-linecap="round" stroke-linejoin="round"/>
</svg>
