<svg width="60" height="60" viewBox="0 0 60 60" fill="none" xmlns="http://www.w3.org/2000/svg">
<circle cx="30" cy="30" r="30" fill="#FCF0F3"/>
<g clip-path="url(#clip0_528_100)">
<path d="M46.93 30.48C46.64 30.46 46.4 30.68 46.38 30.96C45.91 37.61 41.51 43.15 35.57 45.39L39.44 40.73C40.15 39.87 40.05 39.08 40.05 37.99L41.53 37.33C42.32 36.98 42.82 36.2 42.82 35.34C42.82 34.5 42.14 33.82 41.3 33.82H40.69L39.34 31.22C38.89 30.36 38.01 29.82 37.04 29.82H34C33.41 29.82 32.85 30.05 32.43 30.47C32.08 30.82 31.54 30.88 31.12 30.62L28.43 28.96V27.07H29.96L30.49 27.78C30.94 28.37 31.85 28.3 32.2 27.65L34.38 23.6H35.65C36.21 23.6 36.67 23.14 36.67 22.58V20.92C37.66 20.9 38.04 19.6 37.21 19.05C32.25 15.78 32.75 15.87 29.78 15.87C29.49 15.87 29.26 16.1 29.26 16.39C29.26 16.68 29.49 16.91 29.78 16.91C32.52 16.91 31.88 16.78 36.58 19.88C36.05 19.92 35.63 20.36 35.63 20.89V22.57H34.37C34 22.57 33.65 22.77 33.48 23.1L31.31 27.13C30.35 25.85 30.67 26.03 28.41 26.03C27.85 26.03 27.39 26.49 27.39 27.05V28.97C27.39 29.32 27.58 29.65 27.87 29.84L30.57 31.5C31.4 32.01 32.47 31.89 33.16 31.2C33.38 30.98 33.68 30.85 34 30.85H37.04C37.62 30.85 38.15 31.17 38.42 31.69L39.78 34.31C39.96 34.65 40.3 34.86 40.68 34.86H41.3C42.01 34.86 41.91 36.02 41.11 36.38L39.62 37.04C38.44 37.56 39.51 39.01 38.64 40.06L33.74 45.95C33.33 46.05 32.92 46.14 32.5 46.21V44.43C33.61 41.26 33.58 41.41 33.58 41.18V39.38C33.58 38.96 33.31 38.57 32.92 38.43L31.15 37.78C30.61 37.58 30.25 37.06 30.25 36.49V35.32C30.58 33.71 29.7 32.13 28.17 31.55L24.35 30.11L23.5 26.23C23.4 25.77 22.98 25.43 22.51 25.43H20.16L18.78 22.34L19.16 21.53C19.6 20.56 19.41 19.4 18.67 18.63L17.98 17.92C18.7 17.2 19.49 16.55 20.34 15.97C22.54 16.91 22.49 16.91 22.77 16.91H27.34C27.63 16.91 27.86 16.68 27.86 16.39C27.86 16.1 27.63 15.87 27.34 15.87H22.77L21.41 15.3C26.97 12.09 33.91 12.36 39.24 16.07C38.86 17.67 40.04 18.7 39.69 19.91C39.15 21.79 40.67 23.35 42.04 23.65C45.21 24.35 45.12 24.36 45.51 24.36C45.97 25.71 46.27 27.13 46.37 28.61C46.39 28.9 46.64 29.11 46.92 29.09C47.21 29.07 47.42 28.82 47.4 28.54C47.06 23.48 44.57 18.89 40.66 15.82C29 6.63001 12 15.09 12 29.76C12 34.5 13.84 38.95 17.19 42.3C20.54 45.65 24.99 47.49 29.73 47.49C39.04 47.49 46.75 40.29 47.41 31.04C47.43 30.75 47.21 30.5 46.93 30.48ZM45.1 23.26C41.58 22.48 41.99 22.65 41.26 22.04C40.72 21.59 40.5 20.86 40.7 20.19C41.1 18.82 40.24 17.67 40.21 16.79C42.32 18.5 44.01 20.72 45.1 23.26ZM31.47 46.36C21.61 47.4 13.04 39.63 13.04 29.76C13.04 25.51 14.64 21.62 17.27 18.67L17.93 19.35C18.37 19.81 18.49 20.5 18.22 21.08C17.84 21.89 17.6 22.22 17.83 22.74L19.22 25.86C19.38 26.23 19.75 26.46 20.15 26.46H22.49L23.34 30.33C23.41 30.67 23.65 30.94 23.97 31.06L27.8 32.51C28.85 32.91 29.45 34 29.23 35.1C29.2 35.23 29.21 35.19 29.21 36.47C29.21 37.48 29.84 38.39 30.79 38.73L32.55 39.38V41.16C31.44 44.32 31.47 44.18 31.47 44.41V46.36Z" fill="#477B44"/>
</g>
<defs>
<clipPath id="clip0_528_100">
<rect width="35.41" height="35.49" fill="white" transform="translate(12 12)"/>
</clipPath>
</defs>
</svg>
