<svg width="60" height="60" viewBox="0 0 60 60" fill="none" xmlns="http://www.w3.org/2000/svg">
<circle cx="30" cy="30" r="30" fill="#FCF0F3"/>
<path d="M37.75 42.02C37.6 42.02 37.45 41.97 37.33 41.87C37.06 41.64 37.02 41.23 37.25 40.95C38.56 39.4 39.29 37.42 39.29 35.39C39.29 30.64 35.43 26.78 30.68 26.78C29.06 26.78 27.48 27.23 26.11 28.09C25.81 28.28 25.4 28.19 25.21 27.88C25.02 27.58 25.11 27.17 25.42 26.98C26.99 25.99 28.81 25.47 30.68 25.47C36.14 25.47 40.59 29.92 40.59 35.38C40.59 37.72 39.76 40 38.24 41.78C38.12 41.94 37.94 42.02 37.75 42.02Z" fill="#2E5A53"/>
<path d="M30.69 45.3C25.23 45.3 20.78 40.85 20.78 35.39C20.78 33.05 21.61 30.77 23.13 28.99C23.36 28.72 23.77 28.68 24.05 28.91C24.32 29.14 24.36 29.55 24.13 29.83C22.81 31.38 22.09 33.36 22.09 35.39C22.09 40.14 25.95 44 30.7 44C32.32 44 33.89 43.55 35.25 42.7C35.55 42.51 35.96 42.6 36.15 42.91C36.34 43.21 36.25 43.62 35.94 43.81C34.36 44.78 32.55 45.3 30.69 45.3Z" fill="#2E5A53"/>
<path d="M18.33 36.68H8.65C8.29 36.68 8 36.38 8 36.03C8 35.68 8.29 35.38 8.65 35.38H17.66C17.67 28.2 23.51 22.36 30.69 22.36C36.45 22.36 41.45 26.06 43.14 31.55C43.25 31.89 43.05 32.26 42.71 32.36C42.36 32.47 42 32.27 41.9 31.93C40.38 26.98 35.87 23.65 30.69 23.65C24.22 23.65 18.96 28.91 18.96 35.38C18.96 35.58 18.97 35.78 18.98 35.98C18.99 36.16 18.92 36.33 18.8 36.46C18.68 36.6 18.51 36.68 18.33 36.68Z" fill="#2E5A53"/>
<path d="M46.34 36.04C45.98 36.04 45.69 35.75 45.69 35.39V28.54C45.69 28.18 45.98 27.89 46.34 27.89C46.7 27.89 46.99 28.18 46.99 28.54V35.39C46.99 35.75 46.7 36.04 46.34 36.04Z" fill="#2E5A53"/>
<path d="M15.37 39.16H10.52C10.16 39.16 9.87 38.87 9.87 38.51C9.87 38.15 10.16 37.86 10.52 37.86H15.37C15.73 37.86 16.02 38.15 16.02 38.51C16.02 38.87 15.73 39.16 15.37 39.16Z" fill="#2E5A53"/>
<path d="M15.37 42.02H10.52C10.16 42.02 9.87 41.73 9.87 41.37C9.87 41.01 10.16 40.72 10.52 40.72H15.37C15.73 40.72 16.02 41.01 16.02 41.37C16.02 41.73 15.73 42.02 15.37 42.02Z" fill="#2E5A53"/>
<path d="M30.69 48.42C25.26 48.42 20.35 45 18.47 39.91C18.35 39.57 18.52 39.2 18.85 39.08C19.19 38.95 19.56 39.13 19.69 39.46C21.38 44.04 25.81 47.12 30.69 47.12C37.16 47.12 42.42 41.86 42.42 35.39C42.42 35.03 42.71 34.74 43.07 34.74H48.77V31.32C48.77 30.96 49.06 30.67 49.42 30.67C49.78 30.67 50.07 30.96 50.07 31.32V35.39C50.07 35.75 49.78 36.04 49.42 36.04H43.7C43.36 42.92 37.66 48.42 30.69 48.42Z" fill="#2E5A53"/>
<path d="M30.69 22.6C30.33 22.6 30.04 22.31 30.04 21.95V17.43C30.04 17.07 30.33 16.78 30.69 16.78C31.05 16.78 31.34 17.07 31.34 17.43V21.95C31.34 22.31 31.05 22.6 30.69 22.6Z" fill="#2E5A53"/>
<path d="M30.7 18.86H25.85C25.76 18.86 19.5 18.57 19.09 11.84C19.07 11.49 19.33 11.19 19.67 11.15C19.86 11.13 24.35 10.68 26.74 11.4C29.32 12.18 31.35 15.17 31.35 18.2C31.35 18.57 31.06 18.86 30.7 18.86ZM20.45 12.4C21.1 17.31 25.67 17.55 25.87 17.56H30.01C29.75 15.34 28.21 13.22 26.36 12.66C24.72 12.16 21.75 12.3 20.45 12.4Z" fill="#2E5A53"/>
<path d="M30.68 18.86C30.32 18.86 30.03 18.57 30.03 18.21C30.03 15.18 32.05 12.2 34.64 11.41C37.03 10.69 41.52 11.14 41.71 11.16C42.06 11.2 42.31 11.5 42.29 11.85C41.89 18.57 35.62 18.86 35.55 18.86H30.68ZM31.37 17.56H35.53C35.71 17.55 40.28 17.31 40.93 12.4C39.63 12.3 36.66 12.16 35.02 12.66C33.17 13.22 31.63 15.33 31.37 17.56Z" fill="#2E5A53"/>
<path d="M30.62 40.72C28.65 40.72 27.86 39.05 27.71 38.16C27.65 37.81 27.89 37.47 28.24 37.41C28.59 37.35 28.93 37.59 28.99 37.94C29.02 38.1 29.3 39.41 30.62 39.41C32.15 39.41 32.37 38.35 32.37 37.72C32.37 36.71 31.47 36.03 30.62 36.03C30.6 36.03 30.57 36.03 30.55 36.03C29.11 35.97 27.62 34.78 27.62 33.04C27.62 31.66 28.42 30.05 30.67 30.05C32.64 30.05 33.43 31.72 33.58 32.61C33.64 32.96 33.4 33.3 33.05 33.36C32.7 33.42 32.36 33.18 32.3 32.82C32.27 32.67 32 31.35 30.67 31.35C29.14 31.35 28.92 32.41 28.92 33.04C28.92 34.05 29.82 34.73 30.67 34.73C30.69 34.73 30.72 34.73 30.74 34.73C32.18 34.79 33.67 35.98 33.67 37.72C33.68 39.11 32.88 40.72 30.62 40.72Z" fill="#2E5A53"/>
<path d="M30.69 31.08C30.33 31.08 30.04 30.79 30.04 30.43V28.43C30.04 28.07 30.33 27.78 30.69 27.78C31.05 27.78 31.34 28.07 31.34 28.43V30.43C31.34 30.79 31.05 31.08 30.69 31.08Z" fill="#2E5A53"/>
<path d="M30.69 42.98C30.33 42.98 30.04 42.69 30.04 42.33V40.18C30.04 39.82 30.33 39.53 30.69 39.53C31.05 39.53 31.34 39.82 31.34 40.18V42.33C31.34 42.69 31.05 42.98 30.69 42.98Z" fill="#2E5A53"/>
</svg>
