<svg width="60" height="60" viewBox="0 0 60 60" fill="none" xmlns="http://www.w3.org/2000/svg">
<circle cx="30" cy="30" r="30" fill="#FCF0F3"/>
<path d="M40.36 41.42C43.64 41.42 46.32 38.75 46.32 35.46C46.32 33.26 45.12 31.26 43.21 30.23C43.26 29.94 43.28 29.64 43.28 29.34C43.28 26.24 40.76 23.72 37.66 23.72C37.07 23.72 36.5 23.81 35.96 23.98C35.97 23.8 35.97 23.63 35.97 23.45C35.97 21.31 35.4 19.21 34.32 17.37C33.27 15.59 31.77 14.1 29.98 13.07C29.78 12.95 29.53 12.95 29.33 13.07C27.54 14.1 26.04 15.59 24.99 17.37C23.91 19.2 23.34 21.3 23.34 23.45C23.34 23.54 23.34 23.63 23.34 23.72C22.79 23.61 22.22 23.55 21.65 23.55C19.87 23.55 18.15 24.09 16.7 25.11C15.28 26.11 14.19 27.48 13.57 29.1C13.44 29.44 13.61 29.81 13.94 29.94C14.03 29.98 14.11 30 14.18 30C14.44 30 14.69 29.84 14.79 29.58C15.88 26.76 18.64 24.87 21.66 24.87C22.27 24.87 22.87 24.95 23.46 25.09C23.67 26.66 24.2 28.17 25 29.54C25.96 31.17 27.3 32.56 28.9 33.57C28.3 36.81 25.59 39.26 22.32 39.55V37.07L25.29 34.1C25.54 33.85 25.54 33.43 25.29 33.18C25.04 32.93 24.62 32.93 24.37 33.18L22.32 35.23V30.39C22.32 30.03 22.03 29.74 21.67 29.74C21.31 29.74 21.02 30.03 21.02 30.39V32.43L19.75 31.16C19.5 30.91 19.08 30.91 18.83 31.16C18.58 31.41 18.58 31.83 18.83 32.08L21.02 34.27V39.56C18.26 39.31 15.81 37.49 14.8 34.88C14.67 34.54 14.29 34.38 13.96 34.51C13.62 34.64 13.46 35.02 13.59 35.35C14.21 36.96 15.29 38.34 16.72 39.34C18 40.23 19.48 40.76 21.02 40.87V45.03H13.65C13.29 45.02 13 45.31 13 45.67C13 46.03 13.29 46.32 13.65 46.32H45.67C46.03 46.32 46.32 46.03 46.32 45.67C46.32 45.31 46.03 45.02 45.67 45.02H37.9V40.89C38.67 41.24 39.5 41.42 40.36 41.42ZM41.98 29.34C41.98 29.71 41.93 30.08 41.84 30.43C41.76 30.74 41.92 31.06 42.21 31.19C43.91 31.93 45.02 33.61 45.02 35.46C45.02 38.03 42.93 40.11 40.37 40.11C39.49 40.11 38.64 39.87 37.9 39.4V35.6L40.46 33.04C40.71 32.79 40.71 32.37 40.46 32.12C40.21 31.87 39.79 31.87 39.54 32.12L37.9 33.76V32.35C37.9 31.99 37.61 31.7 37.25 31.7C36.89 31.7 36.6 31.99 36.6 32.35V36.24L35.12 34.76C34.87 34.51 34.45 34.51 34.2 34.76C33.95 35.01 33.95 35.43 34.2 35.68L36.6 38.08V39.43C35.93 39.88 35.16 40.12 34.35 40.12C32.13 40.12 30.32 38.31 30.32 36.09C30.32 34.23 31.58 32.62 33.38 32.18C33.57 32.13 33.73 32 33.81 31.82C33.89 31.64 33.89 31.43 33.8 31.26C33.5 30.66 33.35 30.02 33.35 29.35C33.35 26.97 35.29 25.04 37.66 25.04C40.03 25.04 41.98 26.97 41.98 29.34ZM24.65 23.46C24.65 19.79 26.56 16.35 29.66 14.41C32.76 16.36 34.67 19.79 34.67 23.46C34.67 23.85 34.65 24.24 34.61 24.63C33.07 25.63 32.05 27.37 32.05 29.34C32.05 29.69 32.08 30.03 32.14 30.36C31.6 31 30.98 31.57 30.31 32.07V24.5L32.31 22.5C32.56 22.25 32.56 21.83 32.31 21.58C32.06 21.33 31.64 21.33 31.39 21.58L30.31 22.66V19.9C30.31 19.54 30.02 19.25 29.66 19.25C29.3 19.25 29.01 19.54 29.01 19.9V25.71L27.4 24.1C27.15 23.85 26.73 23.85 26.48 24.1C26.23 24.35 26.23 24.77 26.48 25.02L29.01 27.55V32.08C26.29 30.07 24.65 26.87 24.65 23.46ZM22.31 40.86C25.11 40.65 27.58 39.09 29.01 36.8V45.01H22.31V40.86V40.86ZM30.31 45.02V39.58C31.29 40.71 32.73 41.43 34.34 41.43C35.13 41.43 35.9 41.26 36.59 40.93V45.02H30.31Z" fill="#29564F"/>
<path d="M42.44 20.77C44.58 20.77 46.32 19.03 46.32 16.89C46.32 14.75 44.58 13 42.44 13C40.3 13 38.56 14.74 38.56 16.88C38.56 19.02 40.3 20.77 42.44 20.77ZM42.44 14.3C43.86 14.3 45.02 15.46 45.02 16.88C45.02 18.3 43.86 19.46 42.44 19.46C41.02 19.46 39.86 18.3 39.86 16.88C39.86 15.46 41.01 14.3 42.44 14.3Z" fill="#29564F"/>
<path d="M13.65 32.88C13.82 32.88 13.99 32.81 14.11 32.69C14.23 32.57 14.3 32.4 14.3 32.23C14.3 32.06 14.23 31.89 14.11 31.77C13.99 31.65 13.82 31.58 13.65 31.58C13.48 31.58 13.31 31.65 13.19 31.77C13.07 31.89 13 32.05 13 32.23C13 32.4 13.07 32.57 13.19 32.69C13.31 32.81 13.48 32.88 13.65 32.88Z" fill="#29564F"/>
</svg>
