<svg width="60" height="60" viewBox="0 0 60 60" fill="none" xmlns="http://www.w3.org/2000/svg">
<circle cx="30" cy="30" r="30" fill="#C5D5D4"/>
<path d="M19.5765 42.3013H16.0127V40.7667H19.678C21.2887 40.7667 22.3414 41.7687 22.3414 43.075C22.3414 44.3686 21.2887 45.3959 19.678 45.3959H17.7756V47.2983H16V43.8613H19.5639C20.3375 43.8613 20.5658 43.5189 20.5658 43.0877C20.5658 42.6438 20.3375 42.3013 19.5765 42.3013Z" fill="#2B5851"/>
<path d="M24.0304 47.279V40.7473H29.9025V42.282H25.7933V43.1697H28.5835V44.7043H25.7933V45.7316H29.9025V47.2663H24.0304V47.279Z" fill="#2B5851"/>
<path d="M31.8396 47.279V40.7473H37.7117V42.282H33.6025V43.1697H36.3927V44.7043H33.6025V47.2663H31.8396V47.279Z" fill="#2B5851"/>
<path d="M45.3508 46.2201C44.5645 47.0318 43.4991 47.4123 42.4337 47.4123C40.2903 47.4123 38.5782 45.9411 38.5782 44.026C38.5782 42.1109 40.2903 40.6398 42.4337 40.6398C43.5118 40.6398 44.5898 41.0203 45.3634 41.8446L43.943 42.8339C43.5625 42.4026 43.0425 42.1743 42.4337 42.1743C41.381 42.1743 40.4045 42.9987 40.4045 44.026C40.4045 45.0533 41.3684 45.8778 42.4337 45.8778C43.0171 45.8778 43.5499 45.6621 43.9177 45.2943L45.3508 46.2201Z" fill="#2B5851"/>
<path d="M37.6112 28.7883H33.4131V31.7687H30.6103V28.7883H26.222L26.3235 28.7502C28.2133 27.7103 29.4942 25.7318 29.4942 23.4616C29.4942 23.0811 29.4561 22.7006 29.3927 22.3328L32.0181 17.3358L37.6112 28.7883Z" fill="#2B5851"/>
<path d="M17.969 23.5537C17.969 20.7381 20.2899 18.4679 23.1562 18.4679C26.0225 18.4679 28.3435 20.7508 28.3435 23.5537C28.3435 25.9254 26.6947 27.9165 24.4626 28.4872V31.8609H21.6597V28.4365C19.529 27.7897 17.969 25.8493 17.969 23.5537Z" fill="#2B5851"/>
<path d="M16.7244 24.6974C16.7751 24.4944 16.8259 24.2915 16.8893 24.0886C16.8893 24.0886 16.9019 24.0632 16.9146 24.0632C16.9527 24.0632 16.9527 24.0886 16.9527 24.0886C16.9907 24.4945 17.0668 24.8876 17.1683 25.2681C16.2298 31.1783 20.1107 35.8075 26.2365 35.8075C32.1593 35.8075 38.1202 31.4446 40.2509 25.8008L43.0284 23.2135L44.6265 24.989C42.6606 32.4085 35.0129 38.3694 27.3779 38.3694C19.6541 38.3694 14.8854 32.2563 16.7244 24.6974ZM40.8724 23.5433C41.9504 17.5316 38.0315 12.7756 31.8423 12.7756C27.9233 12.7756 23.9916 14.678 21.1634 17.5951C20.859 17.6965 20.5673 17.8233 20.2883 17.9628C20.2883 17.9628 20.2502 17.9882 20.2249 17.9501C20.1995 17.9248 20.2122 17.8867 20.2122 17.8867C23.6238 13.7775 28.8364 11 34.0364 11C41.2021 11 45.8187 16.2633 44.9943 23.0486L43.3455 21.2096L40.8724 23.5433Z" fill="#2B5851"/>
<path d="M45.9454 39.5519H46.8332V39.7802H46.5288V40.4904H46.2371V39.7802H45.9327V39.5519H45.9454Z" fill="#2B5851"/>
<path d="M46.9601 39.5519H47.3406L47.4801 40.1226L47.6196 39.5519H48.0001V40.5031H47.7591V39.7802L47.5815 40.5031H47.3659L47.1884 39.7802V40.5031H46.9474V39.5519H46.9601Z" fill="#2B5851"/>
</svg>
